<?xml version="1.0" encoding="utf-8"?>
<!-- Generator: Adobe Illustrator 23.0.3, SVG Export Plug-In . SVG Version: 6.00 Build 0)  -->
<svg version="1.1" id="Layer_1" xmlns="http://www.w3.org/2000/svg" xmlns:xlink="http://www.w3.org/1999/xlink" x="275px" y="30.5px"
	 viewBox="0 0 275 30.5" style="enable-background:new 0 0 275 30.5;" xml:space="preserve">
<style type="text/css">
	.st0{filter:url(#Adobe_OpacityMaskFilter);}
	.st1{fill-rule:evenodd;clip-rule:evenodd;fill:#FFFFFF;}
	.st2{mask:url(#mask-2_1_);fill-rule:evenodd;clip-rule:evenodd;fill:#FFFFFF;}
	.st3{filter:url(#Adobe_OpacityMaskFilter_1_);}
	.st4{mask:url(#mask-4_1_);fill-rule:evenodd;clip-rule:evenodd;fill:#FFFFFF;}
	.st5{filter:url(#Adobe_OpacityMaskFilter_2_);}
	.st6{mask:url(#mask-6_1_);fill-rule:evenodd;clip-rule:evenodd;fill:#FFFFFF;}
	.st7{filter:url(#Adobe_OpacityMaskFilter_3_);}
	.st8{mask:url(#mask-8_1_);fill-rule:evenodd;clip-rule:evenodd;fill:#FFFFFF;}
	.st9{filter:url(#Adobe_OpacityMaskFilter_4_);}
	.st10{mask:url(#mask-8_2_);fill-rule:evenodd;clip-rule:evenodd;fill:#FFFFFF;}
	.st11{filter:url(#Adobe_OpacityMaskFilter_5_);}
	.st12{mask:url(#mask-8_3_);fill-rule:evenodd;clip-rule:evenodd;fill:#FFFFFF;}
	.st13{filter:url(#Adobe_OpacityMaskFilter_6_);}
	.st14{mask:url(#mask-8_4_);fill-rule:evenodd;clip-rule:evenodd;fill:#FFFFFF;}
	.st15{filter:url(#Adobe_OpacityMaskFilter_7_);}
	.st16{mask:url(#mask-8_5_);fill-rule:evenodd;clip-rule:evenodd;fill:#FFFFFF;}
	.st17{filter:url(#Adobe_OpacityMaskFilter_8_);}
	.st18{mask:url(#mask-8_6_);fill-rule:evenodd;clip-rule:evenodd;fill:#FFFFFF;}
	.st19{filter:url(#Adobe_OpacityMaskFilter_9_);}
	.st20{mask:url(#mask-8_7_);fill-rule:evenodd;clip-rule:evenodd;fill:#FFFFFF;}
</style>
<title>Logo</title>
<desc>Created with Sketch.</desc>
<g id="Symbols">
	<g transform="translate(-294.000000, -18.000000)">
		<g>
			<g id="header">
				<g id="Logo" transform="translate(294.000000, 18.000000)">
					<g id="Group-3" transform="translate(24.067797, 0.144542)">
						<g id="Clip-2">
						</g>
						<defs>
							<filter id="Adobe_OpacityMaskFilter" filterUnits="userSpaceOnUse" x="12.9" y="0.2" width="37.1" height="29.4">
								<feColorMatrix  type="matrix" values="1 0 0 0 0  0 1 0 0 0  0 0 1 0 0  0 0 0 1 0"/>
							</filter>
						</defs>
						<mask maskUnits="userSpaceOnUse" x="12.9" y="0.2" width="37.1" height="29.4" id="mask-2_1_">
							<g class="st0">
								<polygon id="path-1_1_" class="st1" points="12.9,0.2 50.1,0.2 50.1,29.7 12.9,29.7 								"/>
							</g>
						</mask>
						<path id="Fill-1" class="st2" d="M23.1,29.7h27v-0.1c0-16.2-11.1-29.3-24.9-29.3c-4.4,0-8.6,1.3-12.2,3.8
							C18.5,4,23.1,15.5,23.1,29.7"/>
					</g>
					<g id="Group-6" transform="translate(0.000000, 0.144542)">
						<g id="Clip-5">
						</g>
						<defs>
							<filter id="Adobe_OpacityMaskFilter_1_" filterUnits="userSpaceOnUse" x="-0.1" y="0.2" width="37.1" height="29.4">
								<feColorMatrix  type="matrix" values="1 0 0 0 0  0 1 0 0 0  0 0 1 0 0  0 0 0 1 0"/>
							</filter>
						</defs>
						<mask maskUnits="userSpaceOnUse" x="-0.1" y="0.2" width="37.1" height="29.4" id="mask-4_1_">
							<g class="st3">
								<polygon id="path-3_1_" class="st1" points="-0.1,0.2 37,0.2 37,29.7 -0.1,29.7 								"/>
							</g>
						</mask>
						<path id="Fill-4" class="st4" d="M26.8,29.7C26.8,15.5,31.4,4,37,4c-3.6-2.4-7.9-3.8-12.2-3.8C11,0.2-0.1,13.4-0.1,29.5v0.1
							H26.8z"/>
					</g>
					<g id="Group-9" transform="translate(69.152542, 5.229288)">
						<g id="Clip-8">
						</g>
						<defs>
							<filter id="Adobe_OpacityMaskFilter_2_" filterUnits="userSpaceOnUse" x="36.7" y="3.1" width="19.9" height="21.8">
								<feColorMatrix  type="matrix" values="1 0 0 0 0  0 1 0 0 0  0 0 1 0 0  0 0 0 1 0"/>
							</filter>
						</defs>
						<mask maskUnits="userSpaceOnUse" x="36.7" y="3.1" width="19.9" height="21.8" id="mask-6_1_">
							<g class="st5">
								<polygon id="path-5_1_" class="st1" points="36.7,3.1 56.5,3.1 56.5,24.9 36.7,24.9 								"/>
							</g>
						</mask>
						<path id="Fill-7" class="st6" d="M49.5,16.1c0,2.7-1.9,4.4-4.9,4.4c-1.3,0-2.6-0.8-2.6-2.3c0-1.5,1.4-2.3,2.7-2.4l4.9-0.4
							V16.1z M55.7,20.2c-0.6,0-0.9-0.1-0.9-1v-7.5c0.1-1.4-0.1-2.8-0.6-4.2c-1.1-2.8-3.8-4.3-7.8-4.3c-5.2,0-8.4,2.6-8.7,6.8v0.3
							h5.2V10c0.1-2.2,2-2.7,3.5-2.7c2.6,0,3.2,1.2,3.2,2.9v1l-5.7,0.4c-4.3,0.3-7.1,2.9-7.1,6.6c0,3.2,2.4,6.6,7.6,6.6
							c2.3,0.1,4.5-0.9,6-2.7c0.4,1.3,1.6,2.5,3.6,2.5c0.9,0,1.7-0.1,2.5-0.5l0.2-0.1V20l-0.3,0.1C56,20.1,55.8,20.2,55.7,20.2
							L55.7,20.2z"/>
					</g>
					<path id="Fill-10" class="st1" d="M137.7,8.3c-2.5,0-4.6,1-5.8,2.7l-0.3-2.2h-4.6v20.8h5.4v-8.8c0-1.7,0-3.6,0.6-5.1
						c0.5-1.1,1.5-2.4,3.3-2.4c2.2,0,3.1,1,3.1,3.6v12.7h5.4V15.8C144.9,11.3,142.1,8.3,137.7,8.3"/>
					<path id="Fill-12" class="st1" d="M183.5,18.6c0,4.1-2,6.4-5.6,6.4c-3.6,0-5.6-2.3-5.6-6.4V2h-5.5v16.7
						c0,7.1,4.1,11.4,11.1,11.4c7,0,11.1-4.3,11.1-11.4V2h-5.6V18.6z"/>
					<path id="Fill-14" class="st1" d="M202,8.2c-2.5,0-4.6,1-5.8,2.7l-0.3-2.2h-4.6v20.8h5.4v-8.8c0-1.7,0-3.6,0.6-5.1
						c0.5-1.1,1.5-2.4,3.3-2.4c2.2,0,3.1,1,3.1,3.6v12.7h5.4V15.8C209.2,11.2,206.4,8.2,202,8.2"/>
					<g id="Clip-17">
					</g>
					<defs>
						<filter id="Adobe_OpacityMaskFilter_3_" filterUnits="userSpaceOnUse" x="212.1" y="2" width="5.7" height="5.1">
							<feColorMatrix  type="matrix" values="1 0 0 0 0  0 1 0 0 0  0 0 1 0 0  0 0 0 1 0"/>
						</filter>
					</defs>
					<mask maskUnits="userSpaceOnUse" x="212.1" y="2" width="5.7" height="5.1" id="mask-8_1_">
						<g class="st7">
							<polygon id="path-7_1_" class="st1" points="-0.1,30.2 274.9,30.2 274.9,0.4 -0.1,0.4 							"/>
						</g>
					</mask>
					<polygon id="Fill-16" class="st8" points="212.1,7.1 217.8,7.1 217.8,2 212.1,2 					"/>
					<defs>
						<filter id="Adobe_OpacityMaskFilter_4_" filterUnits="userSpaceOnUse" x="212.2" y="8.7" width="5.5" height="20.8">
							<feColorMatrix  type="matrix" values="1 0 0 0 0  0 1 0 0 0  0 0 1 0 0  0 0 0 1 0"/>
						</filter>
					</defs>
					<mask maskUnits="userSpaceOnUse" x="212.2" y="8.7" width="5.5" height="20.8" id="mask-8_2_">
						<g class="st9">
							<polygon id="path-7_2_" class="st1" points="-0.1,30.2 274.9,30.2 274.9,0.4 -0.1,0.4 							"/>
						</g>
					</mask>
					<polygon id="Fill-18" class="st10" points="212.2,29.6 217.7,29.6 217.7,8.7 212.2,8.7 					"/>
					<defs>
						<filter id="Adobe_OpacityMaskFilter_5_" filterUnits="userSpaceOnUse" x="219.4" y="2" width="14.5" height="27.9">
							<feColorMatrix  type="matrix" values="1 0 0 0 0  0 1 0 0 0  0 0 1 0 0  0 0 0 1 0"/>
						</filter>
					</defs>
					<mask maskUnits="userSpaceOnUse" x="219.4" y="2" width="14.5" height="27.9" id="mask-8_3_">
						<g class="st11">
							<polygon id="path-7_3_" class="st1" points="-0.1,30.2 274.9,30.2 274.9,0.4 -0.1,0.4 							"/>
						</g>
					</mask>
					<path id="Fill-19" class="st12" d="M230.6,24.9c-1.4,0-2-0.6-2-2v-9.6h5.1V8.7h-5.1V2h-5.4v6.7h-3.7v4.5h3.7v10.1
						c0,4.2,2.3,6.5,6.4,6.5c1.4,0,2.9-0.2,4.2-0.6l0.2-0.1v-4.6l-0.3,0C232.7,24.8,231.6,24.9,230.6,24.9"/>
					<defs>
						<filter id="Adobe_OpacityMaskFilter_6_" filterUnits="userSpaceOnUse" x="234.9" y="8.2" width="19.1" height="21.9">
							<feColorMatrix  type="matrix" values="1 0 0 0 0  0 1 0 0 0  0 0 1 0 0  0 0 0 1 0"/>
						</filter>
					</defs>
					<mask maskUnits="userSpaceOnUse" x="234.9" y="8.2" width="19.1" height="21.9" id="mask-8_4_">
						<g class="st13">
							<polygon id="path-7_4_" class="st1" points="-0.1,30.2 274.9,30.2 274.9,0.4 -0.1,0.4 							"/>
						</g>
					</mask>
					<path id="Fill-20" class="st14" d="M240.3,16.9c0-1,0.4-2,1-2.8c0.8-1,2-1.5,3.2-1.5c1.1-0.1,2.1,0.3,2.9,1.1
						c0.7,0.9,1.2,2,1.2,3.1L240.3,16.9z M244.6,8.2c-2.5-0.1-4.9,0.9-6.7,2.7c-1.9,2-3,4.9-3,8.3s1.1,6.3,3.2,8.3
						c1.8,1.7,4.1,2.6,6.6,2.6c2.9,0,5.4-1,7-2.9c0.9-1.1,1.5-2.5,1.8-3.9V23h-5.2l0,0.2c-0.2,0.6-0.5,1.2-0.9,1.6
						c-0.6,0.6-1.4,0.9-2.8,0.9c-1.1,0-2.1-0.4-2.8-1.2c-0.9-1-1.4-2.2-1.4-3.5h13.6v-0.3c0-0.4,0-1.4,0-1.4c0.1-3-0.5-5.2-1.8-7.2
						C250.6,9.6,247.9,8.2,244.6,8.2L244.6,8.2z"/>
					<defs>
						<filter id="Adobe_OpacityMaskFilter_7_" filterUnits="userSpaceOnUse" x="255.6" y="2" width="19.3" height="28">
							<feColorMatrix  type="matrix" values="1 0 0 0 0  0 1 0 0 0  0 0 1 0 0  0 0 0 1 0"/>
						</filter>
					</defs>
					<mask maskUnits="userSpaceOnUse" x="255.6" y="2" width="19.3" height="28" id="mask-8_5_">
						<g class="st15">
							<polygon id="path-7_5_" class="st1" points="-0.1,30.2 274.9,30.2 274.9,0.4 -0.1,0.4 							"/>
						</g>
					</mask>
					<path id="Fill-21" class="st16" d="M265.3,25.4c-1.2,0-2.4-0.5-3.1-1.5c-0.8-1.1-1.2-2.7-1.2-4.8s0.4-3.7,1.2-4.8
						c0.7-1,1.9-1.5,3.1-1.5c3.6,0,4.4,3.4,4.4,6.3S269,25.4,265.3,25.4L265.3,25.4z M269.5,2v7.8c-1.1-1-2.9-1.6-5.1-1.6
						c-1.9-0.1-3.7,0.6-5.1,1.7c-2.5,2-3.7,5.1-3.7,9.3c0,4,1.2,7.1,3.7,9.1c1.4,1.2,3.3,1.8,5.1,1.8c2.3,0,4.3-0.9,5.5-2.3l0.3,1.8
						h4.7V2H269.5z"/>
					<defs>
						<filter id="Adobe_OpacityMaskFilter_8_" filterUnits="userSpaceOnUse" x="83.3" y="2.1" width="21.2" height="27.6">
							<feColorMatrix  type="matrix" values="1 0 0 0 0  0 1 0 0 0  0 0 1 0 0  0 0 0 1 0"/>
						</filter>
					</defs>
					<mask maskUnits="userSpaceOnUse" x="83.3" y="2.1" width="21.2" height="27.6" id="mask-8_6_">
						<g class="st17">
							<polygon id="path-7_6_" class="st1" points="-0.1,30.2 274.9,30.2 274.9,0.4 -0.1,0.4 							"/>
						</g>
					</mask>
					<path id="Fill-22" class="st18" d="M88.9,7.1h5.6c2.5,0,3.7,1,3.7,2.9s-1.2,2.9-3.6,2.9h-5.7L88.9,7.1z M88.9,18h5.7
						c2.7,0,4.1,1.2,4.1,3.4c0,2.8-3,3.1-4.3,3.1h-5.6V18z M100.9,15.5c2.2-1.3,3-3.8,3-5.7c0-2.4-1.2-4.7-3.2-6.1
						c-1.6-1-3.6-1.5-6.4-1.5h-11v27.6h11c2.9,0,5.3-0.3,7.4-1.9c1.9-1.4,2.8-3.6,2.8-6.3C104.5,19,103.1,16.7,100.9,15.5
						L100.9,15.5z"/>
					<defs>
						<filter id="Adobe_OpacityMaskFilter_9_" filterUnits="userSpaceOnUse" x="147.8" y="2.1" width="18.4" height="27.5">
							<feColorMatrix  type="matrix" values="1 0 0 0 0  0 1 0 0 0  0 0 1 0 0  0 0 0 1 0"/>
						</filter>
					</defs>
					<mask maskUnits="userSpaceOnUse" x="147.8" y="2.1" width="18.4" height="27.5" id="mask-8_7_">
						<g class="st19">
							<polygon id="path-7_7_" class="st1" points="-0.1,30.2 274.9,30.2 274.9,0.4 -0.1,0.4 							"/>
						</g>
					</mask>
					<polygon id="Fill-23" class="st20" points="159.5,17.2 165.1,8.8 159.4,8.8 153.2,17.8 153.2,2.1 147.8,2.1 147.8,29.7 
						153.2,29.7 153.2,25 156.2,21.1 160.5,29.5 160.6,29.7 166.2,29.7 					"/>
				</g>
			</g>
		</g>
	</g>
</g>
</svg>
